<?xml version="1.0" encoding="UTF-8"?>
<svg width="90px" height="14px" viewBox="0 0 90 14" version="1.1" xmlns="http://www.w3.org/2000/svg">
    <!-- Generator: Sketch 52.2 (67145) - http://www.bohemiancoding.com/sketch -->
    <title>rc_logo</title>
    <desc>Created with Sketch.</desc>
    <g id="Page-1" stroke="none" stroke-width="1" fill="none" fill-rule="evenodd">
        <g id="Amazon-V7" transform="translate(-2581.000000, -141.000000)" fill-rule="nonzero">
            <g id="Nothing-found" transform="translate(2570.000000, 122.000000)">
                <g id="Group">
                    <g id="rc_logo" transform="translate(11.000000, 19.000000)">
                        <path d="M4.55357143,4.85454545 L5.89285714,4.85454545 C6.42857143,4.85454545 6.85714286,4.8 7.17857143,4.63636364 C7.5,4.47272727 7.66071429,4.2 7.71428571,3.81818182 L7.71428571,3.6 C7.71428571,3.27272727 7.60714286,3.05454545 7.39285714,2.89090909 C7.17857143,2.72727273 6.85714286,2.67272727 6.48214286,2.67272727 L4.875,2.67272727 L4.55357143,4.85454545 Z M4.125,7.25454545 L3.48214286,11.0181818 L0,11.0181818 L1.82142857,0.163636364 L6.85714286,0.163636364 C7.60714286,0.163636364 8.30357143,0.218181818 8.83928571,0.327272727 C9.375,0.436363636 9.80357143,0.545454545 10.1785714,0.763636364 C10.5,0.981818182 10.7678571,1.2 10.9285714,1.47272727 C11.0892857,1.74545455 11.1428571,2.12727273 11.1428571,2.50909091 C11.1428571,2.72727273 11.1428571,2.94545455 11.0892857,3.27272727 C10.9821429,3.87272727 10.7678571,4.47272727 10.3928571,4.90909091 C10.0178571,5.4 9.53571429,5.72727273 8.83928571,5.89090909 C9.05357143,5.94545455 9.26785714,6.05454545 9.42857143,6.16363636 C9.58928571,6.27272727 9.75,6.38181818 9.85714286,6.49090909 C9.96428571,6.6 10.0714286,6.76363636 10.125,6.98181818 C10.1785714,7.14545455 10.2321429,7.41818182 10.2321429,7.69090909 C10.2321429,8.01818182 10.1785714,8.34545455 10.125,8.78181818 C10.0714286,9.16363636 10.0178571,9.49090909 9.96428571,9.70909091 C9.91071429,9.98181818 9.91071429,10.1454545 9.91071429,10.3090909 C9.91071429,10.5272727 10.0178571,10.6909091 10.1785714,10.6909091 L10.125,11.0181818 L6.58928571,11.0181818 C6.58928571,10.9090909 6.53571429,10.8 6.53571429,10.6909091 C6.53571429,10.5272727 6.53571429,10.3090909 6.58928571,10.0363636 C6.58928571,9.76363636 6.64285714,9.49090909 6.69642857,9.16363636 C6.75,8.83636364 6.80357143,8.56363636 6.80357143,8.34545455 C6.80357143,7.96363636 6.69642857,7.69090909 6.42857143,7.52727273 C6.21428571,7.36363636 5.78571429,7.30909091 5.14285714,7.30909091 L4.125,7.30909091 L4.125,7.25454545 Z M16.0178571,3.16363636 L18.8035714,3.16363636 L18.5892857,4.41818182 C19.0178571,3.92727273 19.4464286,3.6 19.9285714,3.32727273 C20.3571429,3.05454545 20.8928571,2.89090909 21.4821429,2.89090909 C22.3392857,2.89090909 22.9821429,3.10909091 23.4107143,3.49090909 C23.8392857,3.92727273 24,4.47272727 24,5.29090909 C24,5.61818182 23.9464286,5.94545455 23.8928571,6.27272727 L23.0892857,11.0181818 L20.0357143,11.0181818 L20.7321429,6.87272727 C20.7857143,6.70909091 20.7857143,6.49090909 20.7857143,6.32727273 C20.7857143,6.05454545 20.7321429,5.83636364 20.5714286,5.67272727 C20.4642857,5.50909091 20.1964286,5.4 19.875,5.4 C19.3928571,5.4 19.0714286,5.56363636 18.8571429,5.83636364 C18.6428571,6.10909091 18.4821429,6.54545455 18.4285714,7.03636364 L17.7321429,11.0727273 L14.6785714,11.0727273 L16.0178571,3.16363636 Z M28.7142857,4.96363636 C28.5,4.96363636 28.2857143,5.01818182 28.125,5.07272727 C27.9642857,5.18181818 27.8035714,5.29090909 27.6964286,5.45454545 C27.5892857,5.61818182 27.4821429,5.78181818 27.4285714,6.05454545 C27.375,6.27272727 27.3214286,6.49090909 27.2678571,6.76363636 L27.2678571,7.14545455 C27.2678571,7.47272727 27.3214286,7.74545455 27.4821429,7.96363636 C27.6428571,8.18181818 27.8571429,8.29090909 28.2321429,8.34545455 L28.2857143,8.34545455 C28.5,8.34545455 28.7142857,8.29090909 28.875,8.18181818 C29.0357143,8.07272727 29.1964286,7.96363636 29.3035714,7.8 C29.4107143,7.63636364 29.5178571,7.47272727 29.625,7.25454545 C29.6785714,7.03636364 29.7857143,6.87272727 29.7857143,6.65454545 C29.8392857,6.49090909 29.8392857,6.32727273 29.8392857,6.16363636 C29.8392857,5.83636364 29.7857143,5.56363636 29.625,5.29090909 C29.4107143,5.07272727 29.1428571,4.96363636 28.7142857,4.96363636 Z M26.8928571,11.2363636 C26.8928571,11.4 26.9464286,11.5090909 27.0535714,11.5636364 C27.1607143,11.6727273 27.375,11.7818182 27.6964286,11.7818182 C28.125,11.7818182 28.4464286,11.6727273 28.7142857,11.4545455 C28.9285714,11.2363636 29.0892857,10.8545455 29.1964286,10.2545455 L29.3035714,9.6 C29.0357143,9.81818182 28.7142857,10.0363636 28.3392857,10.2 C27.9642857,10.3636364 27.4821429,10.4727273 26.9464286,10.4727273 C26.4642857,10.4727273 26.0892857,10.4181818 25.7142857,10.2545455 C25.3392857,10.0909091 25.0714286,9.87272727 24.8571429,9.65454545 C24.6428571,9.38181818 24.4285714,9.10909091 24.3214286,8.72727273 C24.2142857,8.34545455 24.1607143,7.96363636 24.1607143,7.58181818 L24.1607143,7.2 C24.1607143,7.09090909 24.2142857,6.92727273 24.2142857,6.81818182 C24.2678571,6.32727273 24.4285714,5.83636364 24.6428571,5.4 C24.8571429,4.90909091 25.125,4.47272727 25.4464286,4.09090909 C25.7678571,3.70909091 26.1964286,3.43636364 26.6785714,3.16363636 C27.1607143,2.94545455 27.6964286,2.83636364 28.3392857,2.83636364 C28.8214286,2.83636364 29.25,2.94545455 29.625,3.16363636 C30,3.38181818 30.2678571,3.70909091 30.4821429,4.09090909 L30.6428571,3.05454545 L33.3214286,3.05454545 L32.25,9.38181818 C32.1428571,9.98181818 32.0357143,10.5272727 31.875,11.0181818 C31.7142857,11.5090909 31.5,12 31.125,12.3818182 C30.8035714,12.7636364 30.3214286,13.0363636 29.7321429,13.2545455 C29.1428571,13.4181818 28.3928571,13.5272727 27.4285714,13.5272727 C26.7857143,13.5272727 26.1964286,13.4727273 25.7142857,13.3636364 C25.2321429,13.2545455 24.8571429,13.0909091 24.5892857,12.8727273 C24.3214286,12.6545455 24.1071429,12.4363636 23.9464286,12.1636364 C23.8392857,11.8909091 23.7321429,11.6181818 23.7321429,11.3454545 L23.7321429,11.2363636 L26.8928571,11.2363636 Z" id="Shape" fill="#0073AE"></path>
                        <path d="M40.5,4.41818182 L40.5,4.2 C40.5,3.70909091 40.3928571,3.38181818 40.125,3.10909091 C39.8571429,2.83636364 39.4821429,2.72727273 39,2.72727273 C38.4107143,2.72727273 37.9285714,3 37.5,3.49090909 C37.0714286,3.98181818 36.8035714,4.74545455 36.6428571,5.72727273 C36.5892857,5.89090909 36.5892857,6.10909091 36.5357143,6.27272727 C36.5357143,6.43636364 36.4821429,6.6 36.4821429,6.76363636 C36.4821429,7.03636364 36.4821429,7.25454545 36.5357143,7.47272727 C36.5892857,7.69090909 36.6964286,7.85454545 36.8035714,8.01818182 C36.9107143,8.18181818 37.0714286,8.29090909 37.2857143,8.4 C37.5,8.50909091 37.7678571,8.50909091 38.0892857,8.50909091 C38.625,8.50909091 39.0535714,8.34545455 39.375,8.01818182 C39.6964286,7.69090909 39.9107143,7.25454545 40.0714286,6.76363636 L43.2321429,6.76363636 C43.0714286,7.41818182 42.75,8.01818182 42.4285714,8.56363636 C42.0535714,9.10909091 41.6785714,9.54545455 41.1964286,9.87272727 C40.7142857,10.2545455 40.1785714,10.5272727 39.5892857,10.6909091 C39,10.9090909 38.3571429,10.9636364 37.7142857,10.9636364 C36.9642857,10.9636364 36.3214286,10.8545455 35.7857143,10.6909091 C35.25,10.5272727 34.7678571,10.2 34.3928571,9.87272727 C34.0178571,9.49090909 33.6964286,9.05454545 33.5357143,8.56363636 C33.3214286,8.07272727 33.2142857,7.47272727 33.2142857,6.81818182 C33.2142857,6.65454545 33.2142857,6.43636364 33.2678571,6.21818182 C33.2678571,6 33.3214286,5.78181818 33.375,5.56363636 C33.4821429,4.8 33.75,4.03636364 34.125,3.38181818 C34.5,2.72727273 34.9285714,2.18181818 35.4642857,1.69090909 C36,1.2 36.5892857,0.872727273 37.2321429,0.6 C37.875,0.327272727 38.5714286,0.218181818 39.2678571,0.218181818 C40.7142857,0.218181818 41.8392857,0.545454545 42.5357143,1.2 C43.2321429,1.85454545 43.6071429,2.78181818 43.6071429,3.98181818 L43.6071429,4.41818182 L40.5,4.41818182 Z M49.875,5.94545455 L49.875,5.72727273 C49.875,5.4 49.7678571,5.12727273 49.5535714,4.90909091 C49.3392857,4.69090909 49.0714286,4.58181818 48.75,4.58181818 C48.2678571,4.58181818 47.8928571,4.69090909 47.625,4.96363636 C47.3571429,5.23636364 47.1428571,5.56363636 47.0892857,5.94545455 L49.875,5.94545455 Z M46.8214286,7.58181818 L46.8214286,7.90909091 C46.8214286,8.29090909 46.9285714,8.61818182 47.1964286,8.83636364 C47.4642857,9.05454545 47.7321429,9.16363636 48.1071429,9.16363636 C48.375,9.16363636 48.5892857,9.10909091 48.8035714,9 C49.0178571,8.89090909 49.2321429,8.72727273 49.3392857,8.45454545 L52.2857143,8.45454545 C52.0714286,8.94545455 51.8035714,9.38181818 51.4285714,9.70909091 C51.0535714,10.0363636 50.6785714,10.3090909 50.25,10.5272727 C49.8214286,10.7454545 49.3928571,10.8545455 48.9107143,10.9636364 C48.4285714,11.0727273 48,11.0727273 47.5178571,11.0727273 C46.9821429,11.0727273 46.4464286,11.0181818 46.0178571,10.8545455 C45.5357143,10.6909091 45.1607143,10.5272727 44.8392857,10.2 C44.5178571,9.92727273 44.25,9.6 44.0357143,9.16363636 C43.8214286,8.78181818 43.7678571,8.29090909 43.7678571,7.74545455 L43.7678571,7.36363636 C43.7678571,7.25454545 43.8214286,7.09090909 43.8214286,6.92727273 C43.9285714,6.27272727 44.1428571,5.72727273 44.4642857,5.18181818 C44.7857143,4.63636364 45.1607143,4.2 45.6428571,3.81818182 C46.125,3.43636364 46.6071429,3.16363636 47.1964286,2.94545455 C47.7857143,2.72727273 48.375,2.67272727 48.9642857,2.67272727 C49.6071429,2.67272727 50.1428571,2.78181818 50.625,2.94545455 C51.1071429,3.16363636 51.4821429,3.38181818 51.8571429,3.70909091 C52.1785714,4.03636364 52.4464286,4.41818182 52.6071429,4.90909091 C52.7678571,5.34545455 52.875,5.89090909 52.875,6.43636364 C52.875,6.76363636 52.8214286,7.14545455 52.7678571,7.58181818 L46.8214286,7.58181818 Z M53.8392857,3.16363636 L56.625,3.16363636 L56.4107143,4.41818182 C56.8392857,3.92727273 57.2678571,3.6 57.75,3.32727273 C58.1785714,3.10909091 58.7142857,2.94545455 59.3035714,2.94545455 C60.1607143,2.94545455 60.8035714,3.16363636 61.2321429,3.54545455 C61.6607143,3.98181818 61.8214286,4.52727273 61.8214286,5.34545455 C61.8214286,5.67272727 61.7678571,6 61.7142857,6.32727273 L60.9107143,11.0727273 L57.8571429,11.0727273 L58.5535714,6.92727273 C58.6071429,6.76363636 58.6071429,6.54545455 58.6071429,6.38181818 C58.6071429,6.10909091 58.5535714,5.89090909 58.4464286,5.72727273 C58.3392857,5.56363636 58.0714286,5.45454545 57.75,5.45454545 C57.2678571,5.45454545 56.9464286,5.61818182 56.7321429,5.89090909 C56.5178571,6.16363636 56.3571429,6.6 56.3035714,7.09090909 L55.6071429,11.1272727 L52.5,11.1272727 L53.8392857,3.16363636 Z M66.5892857,10.9636364 C66.2678571,10.9636364 65.9464286,11.0181818 65.625,11.0181818 L64.8214286,11.0181818 C64.3392857,11.0181818 63.9642857,11.0181818 63.6428571,10.9636364 C63.3214286,10.9090909 63.0535714,10.8545455 62.8928571,10.7454545 C62.7321429,10.6363636 62.5714286,10.4727273 62.5178571,10.3090909 C62.4642857,10.1454545 62.4107143,9.87272727 62.4107143,9.6 C62.4107143,9.43636364 62.4107143,9.21818182 62.4642857,9 C62.4642857,8.78181818 62.5178571,8.50909091 62.5714286,8.23636364 L63.1071429,4.96363636 L62.0357143,4.96363636 L62.3571429,3.16363636 L63.4821429,3.16363636 L63.9107143,0.709090909 L66.9642857,0.709090909 L66.5357143,3.16363636 L68.0357143,3.16363636 L67.7142857,4.96363636 L66.2142857,4.96363636 L65.7321429,7.85454545 C65.7321429,7.96363636 65.6785714,8.01818182 65.6785714,8.12727273 L65.6785714,8.34545455 C65.6785714,8.56363636 65.7321429,8.67272727 65.8392857,8.78181818 C65.9464286,8.83636364 66.1607143,8.89090909 66.4821429,8.89090909 L66.9642857,8.89090909 L66.5892857,10.9636364 Z M68.5714286,3.16363636 L71.3571429,3.16363636 L71.0892857,4.74545455 L71.1428571,4.74545455 C71.7857143,3.54545455 72.6428571,2.94545455 73.8214286,2.94545455 L74.0357143,2.94545455 C74.0892857,2.94545455 74.1428571,2.94545455 74.25,3 L73.7142857,6.10909091 C73.6071429,6.10909091 73.5,6.05454545 73.3928571,6.05454545 C73.2857143,6.05454545 73.1785714,6 73.0714286,6 C72.4285714,6 71.9464286,6.16363636 71.5714286,6.49090909 C71.1964286,6.81818182 70.9285714,7.41818182 70.8214286,8.29090909 L70.3392857,11.0181818 L67.2857143,11.0181818 L68.5714286,3.16363636 Z" id="Shape" fill="#F9971D"></path>
                        <path d="M76.9285714,9.21818182 C77.1964286,9.21818182 77.4107143,9.16363636 77.625,9.05454545 C77.8392857,8.94545455 78,8.83636364 78.1071429,8.61818182 C78.2678571,8.45454545 78.375,8.23636364 78.4285714,8.01818182 C78.4821429,7.8 78.5357143,7.52727273 78.5892857,7.25454545 C78.3214286,7.36363636 78.0535714,7.47272727 77.7321429,7.52727273 L76.9285714,7.69090909 C76.7142857,7.74545455 76.5,7.85454545 76.2857143,7.96363636 C76.125,8.07272727 76.0178571,8.29090909 75.9642857,8.50909091 L75.9642857,8.61818182 C75.9642857,8.78181818 76.0178571,8.94545455 76.1785714,9.05454545 C76.3928571,9.21818182 76.6071429,9.21818182 76.9285714,9.21818182 Z M78.3214286,11.0181818 L78.3214286,9.92727273 C77.8392857,10.3636364 77.3035714,10.6363636 76.8214286,10.8 C76.3392857,10.9636364 75.8035714,11.0181818 75.2142857,11.0181818 C74.8928571,11.0181818 74.5714286,10.9636364 74.3035714,10.9090909 C73.9821429,10.8545455 73.7678571,10.6909091 73.5535714,10.5272727 C73.3392857,10.3636364 73.1785714,10.1454545 73.0178571,9.92727273 C72.9107143,9.70909091 72.8035714,9.43636364 72.8035714,9.05454545 C72.8035714,8.89090909 72.8035714,8.78181818 72.8571429,8.56363636 C72.9642857,7.96363636 73.1785714,7.52727273 73.5,7.14545455 C73.8214286,6.81818182 74.1964286,6.54545455 74.6785714,6.38181818 C75.1071429,6.21818182 75.5892857,6.10909091 76.0714286,6 C76.5535714,5.94545455 77.0357143,5.89090909 77.4107143,5.83636364 C77.8392857,5.78181818 78.1607143,5.72727273 78.4821429,5.61818182 C78.75,5.50909091 78.9642857,5.34545455 78.9642857,5.07272727 L78.9642857,4.96363636 C78.9642857,4.85454545 78.9107143,4.74545455 78.8571429,4.69090909 C78.8035714,4.63636364 78.6964286,4.58181818 78.5892857,4.52727273 C78.4821429,4.47272727 78.375,4.47272727 78.2678571,4.47272727 L77.625,4.47272727 C77.5178571,4.47272727 77.4107143,4.52727273 77.3035714,4.58181818 C77.1964286,4.63636364 77.0892857,4.69090909 76.9821429,4.8 C76.875,4.90909091 76.8214286,5.01818182 76.7678571,5.18181818 L73.9285714,5.18181818 C73.9821429,4.74545455 74.1428571,4.36363636 74.3571429,4.03636364 C74.5714286,3.70909091 74.8392857,3.43636364 75.2142857,3.21818182 C75.5892857,3 76.0714286,2.83636364 76.6071429,2.67272727 C77.1428571,2.56363636 77.8392857,2.50909091 78.5892857,2.50909091 C79.2857143,2.50909091 79.875,2.56363636 80.3035714,2.67272727 C80.7321429,2.78181818 81.1071429,2.89090909 81.375,3.10909091 C81.6428571,3.27272727 81.8035714,3.49090909 81.9107143,3.76363636 C82.0178571,4.03636364 82.0714286,4.30909091 82.0714286,4.58181818 C82.0714286,4.74545455 82.0714286,4.96363636 82.0178571,5.18181818 C82.0178571,5.4 81.9642857,5.61818182 81.9107143,5.83636364 L81.2678571,9.54545455 C81.2678571,9.70909091 81.2142857,9.87272727 81.2142857,9.98181818 C81.2142857,10.0909091 81.2142857,10.2 81.2678571,10.2545455 C81.3214286,10.3636364 81.375,10.4181818 81.4821429,10.5272727 L81.4821429,10.9090909 L78.3214286,10.9090909 L78.3214286,11.0181818 Z M82.0178571,11.0181818 L83.8928571,0.163636364 L86.9464286,0.163636364 L85.125,11.0181818 L82.0178571,11.0181818 Z" id="Shape" fill="#F9971D"></path>
                        <polyline id="Shape" fill="#0073AE" points="10.7142857 11.0181818 12.4285714 4.63636364 14.625 4.63636364 13.7678571 11.0181818"></polyline>
                        <path d="M15.75,1.74545455 L15.6964286,1.69090909 C15.6428571,1.63636364 15.5892857,1.52727273 15.4821429,1.47272727 C15.2678571,1.30909091 14.8928571,1.03636364 14.3571429,0.927272727 C14.0892857,0.872727273 13.8214286,0.872727273 13.6071429,0.872727273 C13.125,0.927272727 12.8035714,1.14545455 12.6964286,1.2 C12.6428571,1.2 12.6428571,1.25454545 12.6428571,1.25454545 C12.4821429,1.41818182 12.2678571,1.41818182 12.1071429,1.25454545 C11.9464286,1.09090909 11.9464286,0.872727273 12.1071429,0.709090909 C12.1607143,0.654545455 12.5892857,0.218181818 13.5,0.109090909 C13.7678571,0.0545454545 14.0892857,0.109090909 14.4107143,0.163636364 C15.8035714,0.436363636 16.2857143,1.36363636 16.3392857,1.41818182 C16.4464286,1.58181818 16.3392857,1.8 16.1785714,1.90909091 C16.125,1.90909091 16.0714286,1.96363636 16.0714286,1.96363636 C15.9642857,1.96363636 15.8571429,1.90909091 15.75,1.74545455" id="Shape" fill="#F9971D"></path>
                        <path d="M14.8928571,2.61818182 C14.8392857,2.61818182 14.8928571,2.61818182 14.8928571,2.61818182 L14.7321429,2.45454545 C14.625,2.34545455 14.4107143,2.23636364 14.0892857,2.18181818 C13.9285714,2.12727273 13.8214286,2.12727273 13.6607143,2.18181818 C13.3928571,2.23636364 13.2321429,2.34545455 13.1785714,2.34545455 C13.0714286,2.45454545 12.8571429,2.45454545 12.75,2.34545455 C12.6428571,2.23636364 12.6428571,2.01818182 12.75,1.90909091 C12.8035714,1.85454545 13.0714286,1.58181818 13.6071429,1.52727273 L14.1964286,1.52727273 C15.0535714,1.69090909 15.375,2.23636364 15.4285714,2.29090909 C15.4821429,2.45454545 15.4285714,2.61818182 15.2678571,2.72727273 C15.2142857,2.72727273 15.2142857,2.78181818 15.1607143,2.78181818 C15.0535714,2.78181818 14.9464286,2.72727273 14.8928571,2.61818182 M14.625,3.38181818 C14.625,3.76363636 14.25,4.09090909 13.8214286,4.09090909 C13.3928571,4.09090909 13.0178571,3.76363636 13.0178571,3.38181818 C13.0178571,3 13.3928571,2.67272727 13.8214286,2.67272727 C14.25,2.67272727 14.625,3 14.625,3.38181818" id="Shape" fill="#F9971D"></path>
                        <path d="M88.3392857,1.25454545 L88.7142857,1.25454545 C88.875,1.25454545 88.9285714,1.2 88.9285714,1.03636364 C88.9285714,0.872727273 88.8214286,0.818181818 88.7142857,0.818181818 L88.3392857,0.818181818 L88.3392857,1.25454545 Z M88.0714286,0.654545455 L88.7142857,0.654545455 C88.9821429,0.654545455 89.1428571,0.818181818 89.1428571,1.03636364 C89.1428571,1.30909091 88.9821429,1.36363636 88.9285714,1.36363636 C89.0357143,1.36363636 89.1428571,1.41818182 89.1428571,1.63636364 C89.1428571,1.8 89.1428571,1.96363636 89.1964286,2.01818182 L88.9285714,2.01818182 L88.9285714,1.8 C88.9285714,1.52727273 88.875,1.41818182 88.6607143,1.41818182 L88.2857143,1.41818182 L88.2857143,1.96363636 L88.0714286,1.96363636 L88.0714286,0.654545455 Z" id="Shape" fill="#F8971E"></path>
                        <path d="M88.6071429,0.218181818 C87.9642857,0.218181818 87.4821429,0.763636364 87.4821429,1.36363636 C87.4821429,2.01818182 88.0178571,2.50909091 88.6071429,2.50909091 C89.25,2.50909091 89.7321429,1.96363636 89.7321429,1.36363636 C89.7321429,0.763636364 89.25,0.218181818 88.6071429,0.218181818 M88.6071429,2.83636364 C87.8571429,2.83636364 87.2142857,2.18181818 87.2142857,1.41818182 C87.2142857,0.654545455 87.8571429,-8.8817842e-16 88.6071429,-8.8817842e-16 C89.3571429,-8.8817842e-16 90,0.654545455 90,1.41818182 C90,2.18181818 89.3571429,2.83636364 88.6071429,2.83636364" id="Shape" fill="#F8971E"></path>
                    </g>
                </g>
            </g>
        </g>
    </g>
</svg>
